# xmcd
#
# Track frame offsets:
#	187
#	21522
#	44565
#	68642
#	88520
#	109827
#	125770
#	147372
#	167465
#	183552
#	206342
#	225657
#	243747
#	262462
#	285027
#	301972
#
# Disc length: 4320 seconds
#
# Revision: 3
# Processed by: cddbd v1.5.2PL0 Copyright (c) Steve Scherf et al.
# Submitted via: audiograbber 1.83.01
#
DISCID=ea10de10
DTITLE=Various Artist - JV1001
DYEAR=1992
DGENRE=Karaoke
TTITLE0=Madonna - This Used To Be My Playground
TTITLE1=Jackson, Michael - Jam
TTITLE2=Jackson, Michael - In The Closet
TTITLE3=Cochrane, Tom - Life Is A Highway
TTITLE4=John, Elton - Your Song
TTITLE5=Cyrus, Billy Ray - Achy Breaky Heart
TTITLE6=Hawkins, Sophie B. - Damn I Wish I Was Your Lover
TTITLE7=R.E.M - Losing My Religion
TTITLE8=R.E.M - Shiny Happy People
TTITLE9=Jackson, Michael - Dangerous
TTITLE10=Sir Mix-A-Lot - Baby Got Back
TTITLE11=En Vogue - Giving Him Something He Can Feel
TTITLE12=B-52's, The - Good Stuff
TTITLE13=Cover Girls, The - Whishing On A Star
TTITLE14=Michael, George - Too Funky
TTITLE15=Lennox, Annie - Why
EXTD=
EXTT0=
EXTT1=
EXTT2=
EXTT3=
EXTT4=
EXTT5=
EXTT6=
EXTT7=
EXTT8=
EXTT9=
EXTT10=
EXTT11=
EXTT12=
EXTT13=
EXTT14=
EXTT15=
PLAYORDER=
